<svg id="Layer_1" data-name="Layer 1" xmlns="http://www.w3.org/2000/svg" viewBox="0 0 950.68 999.82"><defs><style>.cls-1{fill:none;stroke:#231f20;stroke-miterlimit:10;stroke-width:85px;}</style></defs><rect class="cls-1" x="42.5" y="42.5" width="865.68" height="914.82"/><path d="M274.3,196.37c-12.79,2.75-24.84,13-31.8,27.12-3.74,7.59-3.8,7.9-4.13,21.3-1,38.4,12.24,85.77,33.89,121.6,31.61,52.35,86.54,92.81,146.64,108,20.46,5.18,33.9,6.78,56.8,6.78,40.3,0,74.55-8.19,110.5-26.42C650.28,422.27,694.53,366,710,297.29c5.33-23.6,7.85-48,6.22-60.1a48.23,48.23,0,0,0-26.46-36.91c-16.1-7.85-33.25-6.48-48.9,3.9-12.33,8.18-15.86,17-21.23,53.11-6.53,44-24.11,74.33-58.07,100.21-27.14,20.68-56.2,29.61-90.9,27.94a140.05,140.05,0,0,1-91.1-38.94A147.31,147.31,0,0,1,345,296.59c-5.21-12.08-8.13-23.6-11.3-44.5s-4.66-26.91-8.6-35c-3.55-7.26-8.63-11.83-18.13-16.27-6.7-3.13-18.08-6-23.3-5.89a68.53,68.53,0,0,0-9.4,1.44Z"/></svg>