<svg id="Layer_1" data-name="Layer 1" xmlns="http://www.w3.org/2000/svg" viewBox="0 0 980.88 348.35"><defs><style>.cls-1{fill:#fff;}.cls-2{fill:#da0011;}</style></defs><rect class="cls-1" width="980.88" height="348.35"/><polygon class="cls-2" points="54.59 177.46 156.46 288.99 156.46 67.7 54.59 177.46"/><polygon class="cls-2" points="266.14 169.57 377.67 67.7 156.38 67.7 266.14 169.57"/><polygon class="cls-2" points="267.33 187.49 155.8 289.36 377.08 289.36 267.33 187.49"/><polygon class="cls-2" points="478.43 177.46 376.56 288.99 376.56 67.7 478.43 177.46"/><path d="M517.68,229.25V118.08h20.14v47.1h51.54v-47.1h20.19V229.25H589.32V182H537.78v47.23Z"/><path d="M691.78,148.65a14.82,14.82,0,0,0-6.38-11.08q-5.62-4-14.58-4A27.86,27.86,0,0,0,660,135.5a16,16,0,0,0-6.9,5.17,12.5,12.5,0,0,0-2.44,7.43,11.14,11.14,0,0,0,1.6,6,13.73,13.73,0,0,0,4.37,4.31,30.93,30.93,0,0,0,6.13,3,66.91,66.91,0,0,0,6.79,2L680,166a73.27,73.27,0,0,1,12.14,4,43.19,43.19,0,0,1,10.46,6.31,27.89,27.89,0,0,1,7.36,9.17A27.5,27.5,0,0,1,712.63,198a30.06,30.06,0,0,1-4.92,17.19,32.76,32.76,0,0,1-14.41,11.55q-9.43,4.16-22.77,4.15-13,0-22.5-4a33.32,33.32,0,0,1-14.9-11.68q-5.34-7.71-5.78-18.78h19.81a16.89,16.89,0,0,0,3.55,9.66,19,19,0,0,0,8.23,5.75,32.18,32.18,0,0,0,11.37,1.9,31,31,0,0,0,11.55-2,18.4,18.4,0,0,0,7.8-5.54,13.36,13.36,0,0,0,2.87-8.33,10.73,10.73,0,0,0-2.55-7.19,19.06,19.06,0,0,0-7-4.78,69.7,69.7,0,0,0-10.44-3.44l-12.65-3.27q-13.74-3.55-21.69-10.71t-8-19.14a28.56,28.56,0,0,1,5.34-17.2,35,35,0,0,1,14.57-11.48,50.91,50.91,0,0,1,21-4.12,49.4,49.4,0,0,1,20.76,4.1,34,34,0,0,1,14,11.35,29,29,0,0,1,5.26,16.63Z"/><path d="M730.62,229.25V118.08h42.55q12.06,0,20.05,3.77a27.11,27.11,0,0,1,12,10.29,27.63,27.63,0,0,1,4,14.76,24,24,0,0,1-2.6,11.56,21.77,21.77,0,0,1-7,7.79,29.61,29.61,0,0,1-9.82,4.28v1.15a24.38,24.38,0,0,1,11.37,3.56,25.52,25.52,0,0,1,8.89,9.25A28.3,28.3,0,0,1,813.53,199a29.26,29.26,0,0,1-4.18,15.5,28.29,28.29,0,0,1-12.6,10.83q-8.4,3.94-21.17,4Zm20.13-63.89h19.93a22,22,0,0,0,9.38-1.93,15.58,15.58,0,0,0,6.6-5.48,14.69,14.69,0,0,0,2.41-8.44,13.86,13.86,0,0,0-4.53-10.67c-3-2.77-7.5-4.17-13.44-4.17H750.75Zm0,47.1h21.66q11,0,15.82-4.2a13.64,13.64,0,0,0,4.86-10.87,16.73,16.73,0,0,0-2.44-8.93,17.07,17.07,0,0,0-6.94-6.3,23.42,23.42,0,0,0-10.76-2.3H750.74Z"/><path d="M926.24,155.59H906a25.44,25.44,0,0,0-3.2-8.89,23.91,23.91,0,0,0-5.8-6.59,24.36,24.36,0,0,0-7.88-4.08,31.42,31.42,0,0,0-9.53-1.39,28.94,28.94,0,0,0-16.07,4.53,30.18,30.18,0,0,0-11,13.24q-4,8.73-4,21.25,0,12.76,4,21.47a29.66,29.66,0,0,0,11,13.14,29.17,29.17,0,0,0,16,4.44,32.17,32.17,0,0,0,9.35-1.33,25.32,25.32,0,0,0,7.88-3.93,24,24,0,0,0,5.92-6.41,24.62,24.62,0,0,0,3.33-8.68l20.31.11a44,44,0,0,1-29,35.36,52.75,52.75,0,0,1-18.08,3A50.42,50.42,0,0,1,853.06,224a47.21,47.21,0,0,1-18.13-19.55q-6.63-12.8-6.62-30.73T835,143a47.72,47.72,0,0,1,18.18-19.55,50.36,50.36,0,0,1,26-6.85,55.26,55.26,0,0,1,17.26,2.61,44.43,44.43,0,0,1,14.22,7.62,41.43,41.43,0,0,1,10.28,12.26A45.87,45.87,0,0,1,926.24,155.59Z"/></svg>