<svg id="Layer_1" data-name="Layer 1" xmlns="http://www.w3.org/2000/svg" viewBox="0 0 980 841"><path d="M970.8,280.4,789,98.7a65.26,65.26,0,0,0-51.5-19,47.84,47.84,0,0,0-5.3-.2H635.4l-6.8,3.8c-35.9,20-81.6,30.9-128.9,30.9s-93-11-128.9-30.9L364,79.5H267.2a66.08,66.08,0,0,0-58.4,34.9L29.2,294a65.67,65.67,0,0,0,0,92.8L160.5,518.1A64.75,64.75,0,0,0,201,537V854.2a66.32,66.32,0,0,0,66.3,66.3h465a66.32,66.32,0,0,0,66.3-66.3V523.5a65.13,65.13,0,0,0,40.9-19L970.8,373.2A65.67,65.67,0,0,0,970.8,280.4Zm-42.4,50.5L797.2,462.2a5.5,5.5,0,0,1-4,1.7,5.92,5.92,0,0,1-4-1.6l-50.5-47.7V854.3a6.44,6.44,0,0,1-6.4,6.4h-465a6.44,6.44,0,0,1-6.4-6.4V430.2l-50.1,45.7a6,6,0,0,1-3.9,1.5,5.5,5.5,0,0,1-4-1.7L71.6,344.4a5.79,5.79,0,0,1,0-8.2L253,155l5.8-5.2,2.6-6.4a6.34,6.34,0,0,1,5.9-4h81.5c43.9,22.7,95.9,34.7,151,34.7s107.1-12,151-34.7h81.5c.3,0,.6.1,1,.1l4.3.6,4.3-.6a5.16,5.16,0,0,1,4.9,1.6L928.6,322.9A5.68,5.68,0,0,1,928.4,330.9Z" transform="translate(-10 -79.5)"/></svg>