<svg id="Layer_1" data-name="Layer 1" xmlns="http://www.w3.org/2000/svg" viewBox="0 0 1001.01 776.9"><defs><style>.cls-1{stroke:#000;stroke-miterlimit:10;stroke-width:21px;}</style></defs><path class="cls-1" d="M80.82,124c-33.69,6.51-63.16,37.71-68.71,72.54C10.77,204.77,10,285.93,10,434.84c0,245-.19,240.22,10.53,261.27,6.13,12.25,21.82,29.29,32.54,35.6,20.67,12.06,5,11.29,226.82,12.25l201.93,1,.57,48.24.38,48.42-98,.38-98.19.57L286,860.14l-.58,17.8H714.57l-.57-17.8-.57-17.61L615.24,842l-98-.38.38-48.42.57-48.24,201.93-1c221.84-1,206.14-.19,226.82-12.25,10.72-6.32,26.41-23.35,32.54-35.6C990.2,675.06,990,679.84,990,434.84c0-148.91-.77-230.07-2.1-238.3-5.55-34.45-31.58-62.78-65.84-71.78-10-2.49-58.76-2.87-422.05-2.68C272.8,122.28,85.61,123.05,80.82,124Zm839.51,37.14c11.87,5,21.25,14,27.37,26.22L953.63,199V432c0,264.72,1.34,244-16.08,261.27-18,17.8,24.88,16.27-437.36,16.27-450.76,0-418.61,1-434.3-12.63-4.4-3.64-10.34-10.91-13.4-15.7l-5.17-9L46.75,435.8l-.38-236.39,5.74-11.87c6.32-12.82,16.46-22.39,28.33-26.6,5.74-2.11,84.22-2.49,420.14-2.68C861.76,158.27,914.39,158.65,920.33,161.14Z" transform="translate(0.5 -111.54)"/></svg>