<svg id="Layer_1" data-name="Layer 1" xmlns="http://www.w3.org/2000/svg" viewBox="0 0 989.9 870.9"><defs><style>.cls-1{stroke:#000;stroke-miterlimit:10;stroke-width:10px;}</style></defs><path class="cls-1" d="M860.9,291.5A129.06,129.06,0,0,0,773,326.1V209.4c0-77.1-62.7-139.8-139.9-139.8H366.9c-77.1,0-139.8,62.7-139.8,139.8V326.2a128.6,128.6,0,0,0-87.9-34.6C67.9,291.5,10,349.5,10,420.7c0,64.2,47.1,117.6,108.5,127.5V871H227v38.9a20.6,20.6,0,1,0,41.2,0V871H731.7v38.9a20.6,20.6,0,0,0,41.2,0V871H881.4V548.1c61.4-9.9,108.5-63.3,108.5-127.5C990,349.5,932.1,291.5,860.9,291.5ZM268.2,209.4a98.67,98.67,0,0,1,98.6-98.6H633.1a98.67,98.67,0,0,1,98.6,98.6V593.9H268.2V209.4ZM159.7,829.7V508.6H139.1A87.9,87.9,0,1,1,227,420.7V829.8H159.7Zm108.5,0V635.1H731.7V829.7ZM860.9,508.6H840.3V829.7H773V420.6a87.9,87.9,0,1,1,87.9,88Z" transform="translate(-5 -64.6)"/></svg>