<svg id="Layer_1" data-name="Layer 1" xmlns="http://www.w3.org/2000/svg" viewBox="0 0 993 953.79"><defs><style>.cls-1{stroke:#000;stroke-miterlimit:10;stroke-width:13px;}</style></defs><path class="cls-1" d="M445.19,30.17C373.41,37.66,322.35,52.05,265,81.23c-45.49,23.22-85.41,53.17-123.22,92.13C68.61,249.18,26.38,338.23,12.37,446.49c-3.84,28.79-2.88,87.91,1.92,120C28.88,667.22,71.68,754.36,141.93,827.1,218.13,906,309.3,951.86,422.16,968c25.72,3.65,94.63,3.07,121.88-1.15,84.84-12.67,163-46.45,229.37-99,33.4-26.49,84.07-82.92,101-112.67l4.61-8.06L866.5,734.4c-6.72-6.91-12.86-12.48-13.44-12.48-.77,0-6.53,8.06-13,17.66-31.1,47-75.24,91.36-121.31,121.88-128.41,85.41-290.79,96.16-429,28.41C175.71,834,89.14,727.29,59.59,606.76c-10-41.46-11.52-55.28-11.52-106.53S49.6,435.16,59.59,393.7c25-102.11,91.17-195.2,181.57-255.28,72.17-48,150.48-71.4,238.58-71.59,61.81,0,117.08,11.52,172.75,35.89l19.19,8.44,14-13.82,14-13.63L679,73.73c-37.23-17.85-88.29-33.21-133-39.92C526.57,30.94,461.12,28.45,445.19,30.17Z" transform="translate(-3.5 -23.1)"/><path class="cls-1" d="M676.29,162.8c-43.57,51.63-82.92,98.08-87.53,103.45l-8.45,10L593,283.14c53,29.75,98.85,91.17,115.35,154.7,10.17,39,10.17,76.39-.19,115.16-2.69,9.79-4.22,18.62-3.45,19.19,8.44,7.49,227.64,161,228.79,160.27,2.49-1.34,18.62-40.31,26.49-63.15,38.19-112.09,39.92-220.34,5.37-327.25-26.3-81-69.29-149.9-131.86-210.56C810.26,109,776.86,81.79,761.12,72.58l-5.76-3.26Zm100.76-32.63c86,68.71,147.79,172.36,168.14,281.77,14.59,79.27,9,154.51-17.47,236.47-5.76,17.66-10.37,29-11.52,28.21C912.94,674.7,748.64,558.39,747.1,557c-.58-.58.19-7.68,1.73-15.55,4.41-20.73,4.41-72.55,0-94.63-12.67-63.53-50.48-128.41-97.12-167.18-7.49-6.14-13.63-11.9-13.63-12.86,0-1.73,122.84-147.6,124.38-147.6C763,119.23,769.57,124.22,777.05,130.17Z" transform="translate(-3.5 -23.1)"/><path class="cls-1" d="M749,213.28c-7.48,2.3-15.16,8.83-20.15,16.89-5.18,8.25-6,23.8-1.73,33.59,3.26,8.25,14.59,17.85,23.61,20.35s11.32,2.5,20.15.19c25.53-7.1,35.32-40.88,17.27-60.27C778.2,213.47,762.66,209.06,749,213.28Z" transform="translate(-3.5 -23.1)"/><path class="cls-1" d="M843.08,506.76c-29.75,19-18,64.49,17.47,67,26.29,1.92,45.11-21.69,37.62-47C891.26,503.49,864,493.51,843.08,506.76Z" transform="translate(-3.5 -23.1)"/><path class="cls-1" d="M434.63,148.22c-99.23,12.67-192.71,71-248.94,155.28-43.57,65.26-65.07,146.83-58.54,222.27,4.22,48.56,16.12,91.94,36.08,131.67,73.7,146.83,234.36,223.61,394.24,187.91C631.75,828.84,699.89,787.58,748.64,729c11.52-13.82,27.45-35.7,34-46.83,1-1.34-4-6.33-13.44-13.24-8.25-6-15.93-11.71-17.08-12.67-1.54-1.15-6.34,4.61-15.16,17.85-15,22.46-44.91,54.32-67.18,71.79C578,817.53,454,831.54,349.21,782.41,253.44,737.66,185.88,646.1,171.68,542.46c-2.69-20-2.69-67.18,0-85.41,14.59-97.7,72.17-181.57,157.39-229.37C400.66,187.57,486.27,178,566.12,201l17.27,5,11.13-12.28c6.14-6.53,12.86-14.4,15-17.27l3.65-5-15.74-5.76c-20-7.1-53.17-15-74.47-17.66C504.12,145.72,452.87,145.91,434.63,148.22Z" transform="translate(-3.5 -23.1)"/><path class="cls-1" d="M459.2,372.59c-51.63,9.4-92.9,48-104.41,97.5-4.22,17.85-2.88,52.59,2.69,69.48,6.14,18.42,16.89,35.7,32,50.86,15.35,15.36,29,24,49.33,31.29,12.48,4.61,16.7,5.18,39.92,5.18,22.27,0,27.83-.58,39.35-4.61a131.14,131.14,0,0,0,82.92-81.19c6.52-19,8.25-48.75,3.45-69.48-9.79-44.15-44.72-82-88.29-95.2C501,372,473.21,369.9,459.2,372.59Zm52.4,41.46c42.61,16.7,66.41,60.65,57.2,104.8-6.91,32.82-34.36,60.84-67.95,69.67-46.83,12.09-96.93-17.85-109.4-65.26-13.82-53.74,22.45-107.48,76.77-113.82C482.43,407.72,500.28,409.64,511.6,414.05Z" transform="translate(-3.5 -23.1)"/></svg>