<svg id="Layer_1" data-name="Layer 1" xmlns="http://www.w3.org/2000/svg" viewBox="0 0 979.9 903.2"><path d="M968.7,409.2H895.3V306.5a32.62,32.62,0,0,0-5.8-18.7,22.14,22.14,0,0,0-8.6-12.5c-90.8-62.7-187.5-101.8-287.3-116.1l-6.8-.9a21.21,21.21,0,0,0,.7-5.7V70.3a21.56,21.56,0,0,0-21.3-21.8H433.7a21.56,21.56,0,0,0-21.3,21.8v79.9a21.72,21.72,0,0,0,2,9.2q-32.25,4.65-64.5,12.4C211,205.5,121.6,272.2,117.9,275a22.14,22.14,0,0,0-7.1,9.3,33.24,33.24,0,0,0-8.5,22.2v93.1h-71A21.56,21.56,0,0,0,10,421.4V549.7a21.56,21.56,0,0,0,21.3,21.8h71V747.4a206.12,206.12,0,0,0,58.4,143.8c37.8,39,87.6,60.5,140.1,60.5H699.4c108,0,195.8-91.6,195.8-204.3V581.1h73.4a21.56,21.56,0,0,0,21.3-21.8V431A21.41,21.41,0,0,0,968.7,409.2ZM102.3,527.8H52.6V443.1h49.7ZM455,150.2V92h90v60.5a9.15,9.15,0,0,0,.1,1.6,636.1,636.1,0,0,0-90.5.7A34.21,34.21,0,0,0,455,150.2Zm-93.6,63.5c76.4-18.4,152.8-22.1,227.3-11.3,71.1,10.4,140.6,34.3,207.4,71.2h-593A688.92,688.92,0,0,1,361.4,213.7ZM563.9,908H431.4V808.7H564V908Zm0-142.9H431.4V616.3c1.1-8.5,3-18.2,4.3-21.4l.4-.6c10.4-16.2,24.6-38.3,62.5-38.3,11,0,47.8,2.7,63.5,37.3a195.69,195.69,0,0,1,1.9,21.6V765.1Zm288.8-17.8C852.7,835.9,784,908,699.5,908h-93V615c0-.3-.6-27.8-5-38-20.5-47.6-66.7-64.5-103-64.5-60.9,0-86.1,39.2-98.2,58l-.7,1.1c-6.2,9.6-9.3,27.5-10.8,40.9l-.1,1.3V908H300.8c-84.5,0-156-73.6-156-160.7V443.1H852.6l.1,304.2Zm0-347.8H144.9V317.2H852.7v82.3Zm94.7,138H895.3V452.8h52.1Z" transform="translate(-10 -48.5)"/></svg>