<svg height="50px" width="50px" id="Layer_1" data-name="Layer 1" xmlns="http://www.w3.org/2000/svg" viewBox="0 0 769.99 686"><path d="M49,0H721a47,47,0,0,1,34.6,14.4C765.09,24,770,35.5,770,49a47,47,0,0,1-14.4,34.6A47.13,47.13,0,0,1,721,98H49A47,47,0,0,1,14.4,83.6,47,47,0,0,1,0,49,47,47,0,0,1,14.4,14.4C24,4.9,35.5,0,49,0Zm0,588H721a49,49,0,0,1,0,98H49a47,47,0,0,1-34.6-14.4,48.77,48.77,0,0,1,0-69.2A47,47,0,0,1,49,588Zm0-294H721a47,47,0,0,1,34.6,14.4c9.5,9.6,14.4,21.1,14.4,34.6a49.17,49.17,0,0,1-49,49H49a47,47,0,0,1-34.6-14.4,48.77,48.77,0,0,1,0-69.2C24,298.9,35.5,294,49,294Z"/></svg>