<?xml version="1.0" encoding="utf-8"?>
<!-- Generator: Adobe Illustrator 24.2.0, SVG Export Plug-In . SVG Version: 6.00 Build 0)  -->
<svg version="1.1" id="Layer_1" xmlns="http://www.w3.org/2000/svg" xmlns:xlink="http://www.w3.org/1999/xlink" x="0px" y="0px"
	 viewBox="0 0 995 995" style="enable-background:new 0 0 995 995;" xml:space="preserve">
<style type="text/css">
	.st0{stroke:#000000;stroke-width:15;stroke-miterlimit:10;}
</style>
<path class="st0" d="M366.6,590.9L61.7,895.8l-1.2-210.6c-0.1-14.6-11.9-26.3-26.5-26.3h-0.2c-14.6,0.1-26.4,12-26.3,26.6l1.8,300.2
	l300.3,1.8h0.2c14.6,0.1,26.5-11.7,26.6-26.4c0.1-14.6-11.7-26.5-26.4-26.5l-210.7-1.3l304.9-304.9c10.4-10.4,10.3-27.2,0-37.5
	C393.8,580.5,377,580.5,366.6,590.9L366.6,590.9z M609.6,411.8c7,0,13.8-2.8,18.7-7.8L933.2,99.1l1.3,210.7
	c0.1,14.6,11.9,26.3,26.5,26.3h0.2c14.6-0.1,26.4-12,26.3-26.7c0,0,0,0,0,0L985.7,9.2L685.5,7.5h-0.2c-14.6-0.1-26.5,11.8-26.6,26.4
	c-0.1,14.6,11.8,26.5,26.4,26.6l210.7,1.3L590.9,366.6c-10.3,10.4-10.3,27.1,0,37.5C595.9,409.1,602.6,411.8,609.6,411.8
	L609.6,411.8z M961.2,658.8H961c-14.6,0-26.4,11.7-26.5,26.3l-1.3,210.7L628.4,590.9c-10.5-10.2-27.3-9.9-37.5,0.6
	c-10,10.3-10,26.6,0,36.9l304.9,304.9l-210.7,1.2c-14.6,0.1-26.4,11.9-26.3,26.5c0.1,14.6,11.9,26.4,26.5,26.4l0,0h0.2l300.3-1.8
	l1.7-300.1C987.6,670.9,975.9,658.9,961.2,658.8C961.2,658.8,961.2,658.8,961.2,658.8L961.2,658.8z M404.1,366.6
	c10.4,10.4,10.3,27.2,0,37.5c-5,4.9-11.7,7.7-18.7,7.8c-7,0-13.8-2.8-18.7-7.8L61.8,99.2l-1.3,210.7c-0.1,14.6-11.9,26.3-26.5,26.3
	h-0.2c-14.6-0.1-26.4-12-26.3-26.7c0,0,0,0,0,0L9.3,9.3l300.3-1.8h0.2c14.6-0.1,26.5,11.8,26.6,26.4S324.6,60.4,310,60.5L99.3,61.8
	L404.1,366.6z"/>
</svg>
