<svg class="svg-icon" fill="#2E2E2E" width="30px" height="30px"  data-name="Layer 1" xmlns="http://www.w3.org/2000/svg" viewBox="0 0 29.99 25.43"><defs><style>.cls-1{fill:#101820;}</style></defs><g id="Layer_54" data-name="Layer 54"><path class="cls-1" d="M15,25.43a3,3,0,0,1-2.13-.88L2.52,14.25A8.73,8.73,0,0,1,0,8,8.06,8.06,0,0,1,8.12,0h0A8.06,8.06,0,0,1,14,2.39l1,1,.82-.82h0a8.38,8.38,0,0,1,11-.89,8.25,8.25,0,0,1,1.5,11.57,7.36,7.36,0,0,1-.69.79L17.08,24.55A3,3,0,0,1,15,25.43ZM8.1,2A6.14,6.14,0,0,0,3.84,3.71,6,6,0,0,0,2,8a6.72,6.72,0,0,0,2,4.8l10.3,10.3a1,1,0,0,0,1.41,0h0L26.18,12.62A6.24,6.24,0,0,0,28,7.82a6.17,6.17,0,0,0-2.43-4.55A6.37,6.37,0,0,0,17.15,4L15.66,5.51a1,1,0,0,1-1.41,0h0l-1.7-1.7A6.3,6.3,0,0,0,8.14,2Z"/></g></svg>